# xmcd CD database file
#
# Track frame offsets:
#	150
#	17005
#	31787
#	50055
#	67215
#	84565
#	101300
#	145772
#	165342
#	181882
#	196825
#	216685
#	236325
#
# Disc length: 3395 seconds
#
# Revision: 2
# Processed by: cddbd v1.5.2PL0 Copyright (c) Steve Scherf et al.
# Submitted via: CDex 1.70beta2
#
DISCID=ac0d410d
DTITLE=SMASHING PUMPKINS - ZEITGEIST
DYEAR=2007
DGENRE=Alternative
TTITLE0=Doomsday Clock
TTITLE1=7 Shades Of Black
TTITLE2=Bleeding The Orchid
TTITLE3=That's The Way (My Love Is)
TTITLE4=Tarantula
TTITLE5=Starz
TTITLE6=United States
TTITLE7=Neverlost
TTITLE8=Bring The Light
TTITLE9=Come On (Let's Go)
TTITLE10=For God And Country
TTITLE11=Pomp And Circumstances
TTITLE12=Death From Above [Bonus Track]
EXTD=YEAR: 2007
EXTT0=
EXTT1=
EXTT2=
EXTT3=
EXTT4=
EXTT5=
EXTT6=
EXTT7=
EXTT8=
EXTT9=
EXTT10=
EXTT11=
EXTT12=
PLAYORDER=
